<mxfile host="app.diagrams.net" modified="2024-06-04T05:30:53.175Z" agent="Mozilla/5.0 (Macintosh; Intel Mac OS X 10_15_7) AppleWebKit/537.36 (KHTML, like Gecko) Chrome/125.0.0.0 Safari/537.36" etag="6LzwNUI7zhccuD__Wu_3" version="24.4.13" type="github">
  <diagram name="Page-1" id="gw843J4Y2WEvcLboUiEy">
    <mxGraphModel dx="1242" dy="820" grid="1" gridSize="10" guides="1" tooltips="1" connect="1" arrows="1" fold="1" page="1" pageScale="1" pageWidth="827" pageHeight="1169" math="0" shadow="0">
      <root>
        <mxCell id="0" />
        <mxCell id="1" parent="0" />
        <mxCell id="fS3_3A86jwli9yk5PjE--1" value="UserService" style="swimlane;fontStyle=2;align=center;verticalAlign=top;childLayout=stackLayout;horizontal=1;startSize=26;horizontalStack=0;resizeParent=1;resizeLast=0;collapsible=1;marginBottom=0;rounded=0;shadow=0;strokeWidth=1;" vertex="1" parent="1">
          <mxGeometry x="35" y="3613" width="160" height="100" as="geometry">
            <mxRectangle x="110" y="3340" width="160" height="26" as="alternateBounds" />
          </mxGeometry>
        </mxCell>
        <mxCell id="fS3_3A86jwli9yk5PjE--2" value="" style="line;html=1;strokeWidth=1;align=left;verticalAlign=middle;spacingTop=-1;spacingLeft=3;spacingRight=3;rotatable=0;labelPosition=right;points=[];portConstraint=eastwest;" vertex="1" parent="fS3_3A86jwli9yk5PjE--1">
          <mxGeometry y="26" width="160" height="8" as="geometry" />
        </mxCell>
        <mxCell id="fS3_3A86jwli9yk5PjE--3" value="addUser&#xa;updateUser&#xa;deleteUser" style="text;align=left;verticalAlign=top;spacingLeft=4;spacingRight=4;overflow=hidden;rotatable=0;points=[[0,0.5],[1,0.5]];portConstraint=eastwest;" vertex="1" parent="fS3_3A86jwli9yk5PjE--1">
          <mxGeometry y="34" width="160" height="58" as="geometry" />
        </mxCell>
        <mxCell id="fS3_3A86jwli9yk5PjE--4" value="" style="edgeStyle=orthogonalEdgeStyle;rounded=0;orthogonalLoop=1;jettySize=auto;html=1;" edge="1" parent="1" source="fS3_3A86jwli9yk5PjE--6" target="fS3_3A86jwli9yk5PjE--32">
          <mxGeometry relative="1" as="geometry" />
        </mxCell>
        <mxCell id="fS3_3A86jwli9yk5PjE--5" value="" style="edgeStyle=orthogonalEdgeStyle;rounded=0;orthogonalLoop=1;jettySize=auto;html=1;endArrow=none;endFill=0;startArrow=classic;startFill=1;" edge="1" parent="1" source="fS3_3A86jwli9yk5PjE--6" target="fS3_3A86jwli9yk5PjE--35">
          <mxGeometry relative="1" as="geometry" />
        </mxCell>
        <mxCell id="fS3_3A86jwli9yk5PjE--6" value="BookingMgmtService" style="swimlane;fontStyle=0;align=center;verticalAlign=top;childLayout=stackLayout;horizontal=1;startSize=26;horizontalStack=0;resizeParent=1;resizeLast=0;collapsible=1;marginBottom=0;rounded=0;shadow=0;strokeWidth=1;" vertex="1" parent="1">
          <mxGeometry x="325" y="3575" width="160" height="138" as="geometry">
            <mxRectangle x="130" y="380" width="160" height="26" as="alternateBounds" />
          </mxGeometry>
        </mxCell>
        <mxCell id="fS3_3A86jwli9yk5PjE--7" value="" style="line;html=1;strokeWidth=1;align=left;verticalAlign=middle;spacingTop=-1;spacingLeft=3;spacingRight=3;rotatable=0;labelPosition=right;points=[];portConstraint=eastwest;" vertex="1" parent="fS3_3A86jwli9yk5PjE--6">
          <mxGeometry y="26" width="160" height="8" as="geometry" />
        </mxCell>
        <mxCell id="fS3_3A86jwli9yk5PjE--8" value="createBooking&#xa;returnItem&#xa;fetchBalanceAmount&#xa;retrieveBookingHistory" style="text;align=left;verticalAlign=top;spacingLeft=4;spacingRight=4;overflow=hidden;rotatable=0;points=[[0,0.5],[1,0.5]];portConstraint=eastwest;fontStyle=4" vertex="1" parent="fS3_3A86jwli9yk5PjE--6">
          <mxGeometry y="34" width="160" height="86" as="geometry" />
        </mxCell>
        <mxCell id="fS3_3A86jwli9yk5PjE--9" value="" style="edgeStyle=orthogonalEdgeStyle;rounded=0;orthogonalLoop=1;jettySize=auto;html=1;" edge="1" parent="1" source="fS3_3A86jwli9yk5PjE--11" target="fS3_3A86jwli9yk5PjE--26">
          <mxGeometry relative="1" as="geometry" />
        </mxCell>
        <mxCell id="fS3_3A86jwli9yk5PjE--10" style="edgeStyle=orthogonalEdgeStyle;rounded=0;orthogonalLoop=1;jettySize=auto;html=1;" edge="1" parent="1" source="fS3_3A86jwli9yk5PjE--11">
          <mxGeometry relative="1" as="geometry">
            <mxPoint x="805" y="3510" as="targetPoint" />
          </mxGeometry>
        </mxCell>
        <mxCell id="fS3_3A86jwli9yk5PjE--11" value="VehicleManagementService" style="swimlane;fontStyle=0;align=center;verticalAlign=top;childLayout=stackLayout;horizontal=1;startSize=26;horizontalStack=0;resizeParent=1;resizeLast=0;collapsible=1;marginBottom=0;rounded=0;shadow=0;strokeWidth=1;" vertex="1" parent="1">
          <mxGeometry x="685" y="3570" width="240" height="133" as="geometry">
            <mxRectangle x="550" y="140" width="160" height="26" as="alternateBounds" />
          </mxGeometry>
        </mxCell>
        <mxCell id="fS3_3A86jwli9yk5PjE--12" value="" style="line;html=1;strokeWidth=1;align=left;verticalAlign=middle;spacingTop=-1;spacingLeft=3;spacingRight=3;rotatable=0;labelPosition=right;points=[];portConstraint=eastwest;" vertex="1" parent="fS3_3A86jwli9yk5PjE--11">
          <mxGeometry y="26" width="240" height="8" as="geometry" />
        </mxCell>
        <mxCell id="fS3_3A86jwli9yk5PjE--13" value="addVehicle&#xa;updateVehicle&#xa;removeVehicle&#xa;updateCostByCategory&#xa;getVehiclesCost&#xa;getVehiclesCostByCategory&#xa;" style="text;align=left;verticalAlign=top;spacingLeft=4;spacingRight=4;overflow=hidden;rotatable=0;points=[[0,0.5],[1,0.5]];portConstraint=eastwest;" vertex="1" parent="fS3_3A86jwli9yk5PjE--11">
          <mxGeometry y="34" width="240" height="96" as="geometry" />
        </mxCell>
        <mxCell id="fS3_3A86jwli9yk5PjE--14" value="&lt;h1 style=&quot;margin-top: 0px;&quot;&gt;Requirement&lt;/h1&gt;&lt;p&gt;Build a system to support Car Rental service for an shop owner&lt;/p&gt;&lt;p&gt;It should support multiple type of vehicle&lt;/p&gt;&lt;p&gt;There can be variety of vehicle under same category like: Scooter -&amp;gt; Motor scooter or CNG scooter -&amp;gt; Both can come in multiple size&lt;br&gt;There can be bicycle also in vehicle which does not have unique registration number&lt;br&gt;Capability Required for:&lt;br&gt;Owner to manage Inventory&lt;br&gt;User should be able to rent vehicle&lt;br&gt;Cost calculation&lt;/p&gt;&lt;p&gt;Payment&lt;/p&gt;&lt;p&gt;&lt;br&gt;&lt;/p&gt;" style="text;html=1;whiteSpace=wrap;overflow=hidden;rounded=0;" vertex="1" parent="1">
          <mxGeometry x="60" y="20" width="780" height="260" as="geometry" />
        </mxCell>
        <mxCell id="fS3_3A86jwli9yk5PjE--15" value="&lt;h1 style=&quot;margin-top: 0px;&quot;&gt;&lt;span style=&quot;background-color: initial;&quot;&gt;Expectation&lt;/span&gt;&lt;/h1&gt;&lt;h1 style=&quot;margin-top: 0px;&quot;&gt;&lt;span style=&quot;background-color: initial; font-size: 12px; font-weight: normal;&quot;&gt;DB Schema design&lt;/span&gt;&lt;br&gt;&lt;/h1&gt;&lt;div&gt;&lt;span style=&quot;background-color: initial; font-size: 12px; font-weight: normal;&quot;&gt;API support&lt;/span&gt;&lt;/div&gt;&lt;div&gt;&lt;span style=&quot;background-color: initial; font-size: 12px; font-weight: normal;&quot;&gt;Class Diagram&lt;/span&gt;&lt;/div&gt;" style="text;html=1;whiteSpace=wrap;overflow=hidden;rounded=0;" vertex="1" parent="1">
          <mxGeometry x="60" y="260" width="780" height="120" as="geometry" />
        </mxCell>
        <mxCell id="fS3_3A86jwli9yk5PjE--16" value="&lt;h1 style=&quot;margin-top: 0px;&quot;&gt;Vehicle_Inventory&lt;/h1&gt;&lt;p&gt;&lt;/p&gt;&lt;ul&gt;&lt;li&gt;v_id : PK&lt;/li&gt;&lt;li&gt;vehicle_nbr&lt;/li&gt;&lt;li&gt;category&lt;/li&gt;&lt;li&gt;sub category&lt;/li&gt;&lt;li&gt;size&lt;/li&gt;&lt;li&gt;qty&lt;/li&gt;&lt;li&gt;manufacturing_date&lt;/li&gt;&lt;li&gt;status&lt;/li&gt;&lt;li&gt;cost&lt;/li&gt;&lt;li&gt;unit&lt;/li&gt;&lt;/ul&gt;&lt;p&gt;&lt;/p&gt;" style="text;html=1;whiteSpace=wrap;overflow=hidden;rounded=0;" vertex="1" parent="1">
          <mxGeometry x="50" y="450" width="220" height="190" as="geometry" />
        </mxCell>
        <mxCell id="fS3_3A86jwli9yk5PjE--17" value="&lt;h1 style=&quot;margin-top: 0px;&quot;&gt;User_Profile&lt;/h1&gt;&lt;p&gt;&lt;/p&gt;&lt;ul&gt;&lt;li&gt;u_id : PK&lt;/li&gt;&lt;li&gt;user_name&lt;/li&gt;&lt;li&gt;address&lt;/li&gt;&lt;li&gt;status&lt;/li&gt;&lt;/ul&gt;&lt;p&gt;&lt;/p&gt;" style="text;html=1;whiteSpace=wrap;overflow=hidden;rounded=0;" vertex="1" parent="1">
          <mxGeometry x="630" y="450" width="180" height="160" as="geometry" />
        </mxCell>
        <mxCell id="fS3_3A86jwli9yk5PjE--18" value="&lt;h1 style=&quot;margin-top: 0px;&quot;&gt;booking&lt;/h1&gt;&lt;p&gt;&lt;/p&gt;&lt;ul&gt;&lt;li&gt;booking_id : PK&lt;/li&gt;&lt;li&gt;user_id&lt;/li&gt;&lt;li&gt;status&lt;/li&gt;&lt;li&gt;payment_status&lt;/li&gt;&lt;li&gt;total_amount_paid&lt;/li&gt;&lt;li&gt;total_amount_pending&lt;/li&gt;&lt;li&gt;booking_date&lt;/li&gt;&lt;/ul&gt;&lt;p&gt;&lt;/p&gt;" style="text;html=1;whiteSpace=wrap;overflow=hidden;rounded=0;" vertex="1" parent="1">
          <mxGeometry x="61" y="820" width="180" height="160" as="geometry" />
        </mxCell>
        <mxCell id="fS3_3A86jwli9yk5PjE--19" value="&lt;h1 style=&quot;margin-top: 0px;&quot;&gt;rental_item&lt;/h1&gt;&lt;p&gt;&lt;/p&gt;&lt;ul&gt;&lt;li&gt;booking_id: CK&lt;/li&gt;&lt;li&gt;v_id : CK&lt;/li&gt;&lt;li&gt;item_rented_qty&lt;/li&gt;&lt;li&gt;item_returned_qty&lt;/li&gt;&lt;li&gt;amount_paid&lt;/li&gt;&lt;li&gt;amount_pending&lt;/li&gt;&lt;li&gt;rental_duration&lt;/li&gt;&lt;li&gt;unit&lt;/li&gt;&lt;li&gt;status&lt;/li&gt;&lt;/ul&gt;&lt;p&gt;&lt;/p&gt;" style="text;html=1;whiteSpace=wrap;overflow=hidden;rounded=0;" vertex="1" parent="1">
          <mxGeometry x="280" y="820" width="180" height="190" as="geometry" />
        </mxCell>
        <mxCell id="fS3_3A86jwli9yk5PjE--20" value="&lt;b&gt;vehicle_invenotry&lt;/b&gt;&lt;br&gt;Since we are dealing with bicycle also which can be identical and don&#39;t have any unique registration nbr so we can track them under one row with more than one qty. Thus needed a qty column. For other registered vehicle qty will be one." style="text;html=1;align=left;verticalAlign=middle;whiteSpace=wrap;rounded=0;" vertex="1" parent="1">
          <mxGeometry x="30" y="690" width="720" height="60" as="geometry" />
        </mxCell>
        <mxCell id="fS3_3A86jwli9yk5PjE--21" value="&lt;b&gt;booking and rental_item&lt;/b&gt;&lt;div&gt;User can book multiple vehicle in single checkout and those can be returned individually by user so we need to keep track of them separately. That&#39;s why I took two table one booking where entire booking will be tracked and under rental_item table we will track item based tracking which will allow user to return item partially&lt;/div&gt;" style="text;html=1;align=left;verticalAlign=middle;whiteSpace=wrap;rounded=0;" vertex="1" parent="1">
          <mxGeometry x="35" y="1020" width="710" height="110" as="geometry" />
        </mxCell>
        <mxCell id="fS3_3A86jwli9yk5PjE--22" value="&lt;h1 style=&quot;margin-top: 0px;&quot;&gt;rental_cost&lt;/h1&gt;&lt;p&gt;&lt;/p&gt;&lt;ul&gt;&lt;li&gt;vc_id&lt;/li&gt;&lt;li&gt;category : CK&lt;/li&gt;&lt;li&gt;sub_cateogry : CK&lt;/li&gt;&lt;li&gt;size : CK&lt;/li&gt;&lt;li&gt;cost&lt;/li&gt;&lt;li&gt;unit&lt;/li&gt;&lt;/ul&gt;&lt;p&gt;&lt;/p&gt;" style="text;html=1;whiteSpace=wrap;overflow=hidden;rounded=0;" vertex="1" parent="1">
          <mxGeometry x="360" y="450" width="180" height="160" as="geometry" />
        </mxCell>
        <mxCell id="fS3_3A86jwli9yk5PjE--23" value="API:&lt;div&gt;&lt;br&gt;&lt;/div&gt;&lt;div&gt;Add vehicle cost&lt;/div&gt;&lt;div&gt;&lt;span style=&quot;color: rgb(108, 118, 125); font-size: 14px;&quot;&gt;POST: rental/service/v1/vehicle/cost&lt;br&gt;&lt;/span&gt;{&lt;/div&gt;&lt;div&gt;&lt;span style=&quot;white-space: pre;&quot;&gt;&#x9;&lt;/span&gt;&lt;span style=&quot;color: rgb(108, 118, 125); font-size: 14px; background-color: initial; white-space: pre;&quot;&gt;&#x9;&lt;/span&gt;&lt;span style=&quot;color: rgb(108, 118, 125); font-size: 14px; background-color: initial;&quot;&gt;&quot;category&quot;: &quot;Scooter/Car/Cycle&quot;, //mandatory&lt;/span&gt;&lt;/div&gt;&lt;div&gt;&lt;span style=&quot;color: rgb(108, 118, 125); font-size: 14px;&quot;&gt;&lt;span style=&quot;white-space: pre;&quot;&gt;&#x9;&lt;/span&gt;&quot;size&quot;: &quot;S/M/L&quot;, //optional&lt;br&gt;&lt;/span&gt;&lt;/div&gt;&lt;div&gt;&lt;span style=&quot;color: rgb(108, 118, 125); font-size: 14px;&quot;&gt;&lt;span style=&quot;white-space: pre;&quot;&gt;&#x9;&lt;/span&gt;&quot;subCategory&quot;: &quot;CNG/Motor&quot;, // optional&lt;/span&gt;&lt;/div&gt;&lt;div&gt;&lt;div&gt;&lt;span style=&quot;color: rgb(108, 118, 125); font-size: 14px;&quot;&gt;&lt;span style=&quot;white-space: pre;&quot;&gt;&#x9;&lt;/span&gt;&quot;unit&quot;: &quot;Day/Month/ Hr&quot;, //mandatory&lt;br&gt;&lt;/span&gt;&lt;/div&gt;&lt;div&gt;&lt;span style=&quot;color: rgb(108, 118, 125); font-size: 14px;&quot;&gt;&lt;span style=&quot;white-space: pre;&quot;&gt;&#x9;&lt;/span&gt;&quot;cost&quot;: 200 // mandatory&lt;/span&gt;&lt;br&gt;&lt;/div&gt;&lt;/div&gt;&lt;div&gt;}&lt;/div&gt;&lt;div&gt;&lt;br&gt;&lt;/div&gt;&lt;div&gt;&lt;div&gt;Update vehicle cost&lt;/div&gt;&lt;div&gt;&lt;span style=&quot;color: rgb(108, 118, 125); font-size: 14px;&quot;&gt;POST: rental/service/v1/vehicle/cost&lt;br&gt;&lt;/span&gt;{&lt;/div&gt;&lt;div&gt;&lt;span style=&quot;white-space: pre;&quot;&gt;&#x9;&lt;/span&gt;&amp;nbsp;&quot;vc_id&quot;:12, //mandatory&lt;br&gt;&lt;/div&gt;&lt;div&gt;&lt;span style=&quot;white-space: pre;&quot;&gt;&#x9;&lt;/span&gt;&lt;span style=&quot;color: rgb(108, 118, 125); font-size: 14px; background-color: initial; white-space: pre;&quot;&gt;&#x9;&lt;/span&gt;&lt;span style=&quot;color: rgb(108, 118, 125); font-size: 14px; background-color: initial;&quot;&gt;&quot;category&quot;: &quot;Scooter/Car/Cycle&quot;, //mandatory&lt;/span&gt;&lt;/div&gt;&lt;div&gt;&lt;span style=&quot;color: rgb(108, 118, 125); font-size: 14px;&quot;&gt;&lt;span style=&quot;white-space: pre;&quot;&gt;&#x9;&lt;/span&gt;&quot;size&quot;: &quot;S/M/L&quot;, //optional&lt;br&gt;&lt;/span&gt;&lt;/div&gt;&lt;div&gt;&lt;span style=&quot;color: rgb(108, 118, 125); font-size: 14px;&quot;&gt;&lt;span style=&quot;white-space: pre;&quot;&gt;&#x9;&lt;/span&gt;&quot;subCategory&quot;: &quot;CNG/Motor&quot;, // optional&lt;/span&gt;&lt;/div&gt;&lt;div&gt;&lt;div&gt;&lt;span style=&quot;color: rgb(108, 118, 125); font-size: 14px;&quot;&gt;&lt;span style=&quot;white-space: pre;&quot;&gt;&#x9;&lt;/span&gt;&quot;unit&quot;: &quot;Day/Month/ Hr&quot;, //mandatory&lt;br&gt;&lt;/span&gt;&lt;/div&gt;&lt;div&gt;&lt;span style=&quot;color: rgb(108, 118, 125); font-size: 14px;&quot;&gt;&lt;span style=&quot;white-space: pre;&quot;&gt;&#x9;&lt;/span&gt;&quot;cost&quot;: 200 // mandatory&lt;/span&gt;&lt;br&gt;&lt;/div&gt;&lt;/div&gt;&lt;div&gt;}&lt;/div&gt;&lt;/div&gt;&lt;div&gt;&lt;br&gt;&lt;br&gt;&lt;div&gt;&lt;span style=&quot;background-color: initial;&quot;&gt;Add vehicle&lt;/span&gt;&lt;br&gt;&lt;/div&gt;&lt;div&gt;&lt;span style=&quot;color: rgb(108, 118, 125); font-size: 14px;&quot;&gt;POST: rental/service/v1/vehicle&amp;nbsp;&lt;/span&gt;&lt;div&gt;&lt;span style=&quot;color: rgb(108, 118, 125); font-size: 14px;&quot;&gt;{&lt;/span&gt;&lt;/div&gt;&lt;div&gt;&lt;span style=&quot;color: rgb(108, 118, 125); font-size: 14px;&quot;&gt;&lt;span style=&quot;white-space: pre;&quot;&gt;&#x9;&lt;/span&gt;&quot;vehicleNbr&quot;: &quot;123ABC&quot;, //Optional&lt;/span&gt;&lt;/div&gt;&lt;div&gt;&lt;span style=&quot;color: rgb(108, 118, 125); font-size: 14px;&quot;&gt;&lt;span style=&quot;white-space: pre;&quot;&gt;&#x9;&lt;/span&gt;&quot;category&quot;: &quot;Scooter/Car/Cycle&quot;, //mandatory&lt;br&gt;&lt;/span&gt;&lt;/div&gt;&lt;div&gt;&lt;span style=&quot;color: rgb(108, 118, 125); font-size: 14px;&quot;&gt;&lt;span style=&quot;white-space: pre;&quot;&gt;&#x9;&lt;/span&gt;&quot;size&quot;: &quot;S/M/L&quot;, //optional&lt;br&gt;&lt;/span&gt;&lt;/div&gt;&lt;div&gt;&lt;span style=&quot;color: rgb(108, 118, 125); font-size: 14px;&quot;&gt;&lt;span style=&quot;white-space: pre;&quot;&gt;&#x9;&lt;/span&gt;&quot;subCategory&quot;: &quot;CNG/Motor&quot;, // optional&lt;br&gt;&lt;/span&gt;&lt;/div&gt;&lt;div&gt;&lt;span style=&quot;color: rgb(108, 118, 125); font-size: 14px;&quot;&gt;&lt;span style=&quot;white-space: pre;&quot;&gt;&#x9;&lt;/span&gt;&quot;manufacturingDate&quot;: &quot;&quot;, //optional&lt;br&gt;&lt;/span&gt;&lt;/div&gt;&lt;div&gt;&lt;span style=&quot;color: rgb(108, 118, 125); font-size: 14px;&quot;&gt;&lt;span style=&quot;white-space: pre;&quot;&gt;&#x9;&lt;/span&gt;&quot;status&quot;: &quot;AVAILABLE/UNDER_MAINTANENCE/DISCARDED&quot;, //mandatory&lt;br&gt;&lt;/span&gt;&lt;/div&gt;&lt;div&gt;&lt;span style=&quot;color: rgb(108, 118, 125); font-size: 14px;&quot;&gt;&lt;span style=&quot;white-space: pre;&quot;&gt;&#x9;&lt;/span&gt;&quot;cost&quot;: 200, // optional&lt;br&gt;&lt;/span&gt;&lt;/div&gt;&lt;div&gt;&lt;span style=&quot;color: rgb(108, 118, 125); font-size: 14px;&quot;&gt;&lt;span style=&quot;white-space: pre;&quot;&gt;&#x9;&lt;/span&gt;&quot;unit&quot;: &quot;Day/Month/ Hr&quot;, //optional&lt;br&gt;&lt;/span&gt;&lt;/div&gt;&lt;div&gt;&lt;span style=&quot;color: rgb(108, 118, 125); font-size: 14px;&quot;&gt;&lt;span style=&quot;white-space: pre;&quot;&gt;&#x9;&lt;/span&gt;&quot;qty&quot;: 10 //optional default take 1 qty&lt;br&gt;&lt;/span&gt;&lt;/div&gt;&lt;div&gt;&lt;span style=&quot;color: rgb(108, 118, 125); font-size: 14px;&quot;&gt;&lt;br&gt;&lt;/span&gt;&lt;/div&gt;&lt;div&gt;&lt;span style=&quot;color: rgb(108, 118, 125); font-size: 14px;&quot;&gt;}&lt;/span&gt;&lt;/div&gt;&lt;div&gt;&lt;span style=&quot;color: rgb(108, 118, 125); font-size: 14px;&quot;&gt;&lt;br&gt;&lt;/span&gt;&lt;/div&gt;&lt;div&gt;&lt;span style=&quot;color: rgb(108, 118, 125); font-size: 14px;&quot;&gt;ResponseBody : { &quot;v_id&quot;:12} Status: 201&lt;/span&gt;&lt;/div&gt;&lt;div&gt;&lt;span style=&quot;color: rgb(108, 118, 125); font-size: 14px;&quot;&gt;&lt;br&gt;&lt;/span&gt;Update vehicle&lt;br&gt;&lt;div&gt;&lt;span style=&quot;color: rgb(108, 118, 125); font-size: 14px;&quot;&gt;PUT: rental/service/v1/vehicle&lt;/span&gt;&lt;/div&gt;&lt;div&gt;&lt;div&gt;&lt;span style=&quot;color: rgb(108, 118, 125); font-size: 14px;&quot;&gt;{&lt;/span&gt;&lt;/div&gt;&lt;div&gt;&lt;span style=&quot;color: rgb(108, 118, 125); font-size: 14px;&quot;&gt;&lt;span style=&quot;white-space: pre;&quot;&gt;&#x9;&lt;/span&gt;&quot;v_id&quot;:21,//mandaotry&lt;br&gt;&lt;/span&gt;&lt;/div&gt;&lt;div&gt;&lt;span style=&quot;color: rgb(108, 118, 125); font-size: 14px;&quot;&gt;&lt;span style=&quot;white-space: pre;&quot;&gt;&#x9;&lt;/span&gt;&quot;vehicleNbr&quot;: &quot;123ABC&quot;, //Optional&lt;/span&gt;&lt;/div&gt;&lt;div&gt;&lt;/div&gt;&lt;div&gt;&lt;/div&gt;&lt;div&gt;&lt;span style=&quot;color: rgb(108, 118, 125); font-size: 14px;&quot;&gt;&lt;span style=&quot;white-space: pre;&quot;&gt;&#x9;&lt;/span&gt;&quot;category&quot;: &quot;Scooter/Car/Cycle&quot;, //&lt;/span&gt;&lt;span style=&quot;color: rgb(108, 118, 125); font-size: 14px; background-color: initial;&quot;&gt;Optional&lt;/span&gt;&lt;span style=&quot;color: rgb(108, 118, 125); font-size: 14px;&quot;&gt;&lt;br&gt;&lt;/span&gt;&lt;/div&gt;&lt;div&gt;&lt;span style=&quot;color: rgb(108, 118, 125); font-size: 14px;&quot;&gt;&lt;span style=&quot;white-space: pre;&quot;&gt;&#x9;&lt;/span&gt;&quot;size&quot;: &quot;S/M/L&quot;, //optional&lt;br&gt;&lt;/span&gt;&lt;/div&gt;&lt;div&gt;&lt;span style=&quot;color: rgb(108, 118, 125); font-size: 14px;&quot;&gt;&lt;span style=&quot;white-space: pre;&quot;&gt;&#x9;&lt;/span&gt;&quot;subCategory&quot;: &quot;CNG/Motor&quot;, // optional&lt;br&gt;&lt;/span&gt;&lt;/div&gt;&lt;div&gt;&lt;span style=&quot;color: rgb(108, 118, 125); font-size: 14px;&quot;&gt;&lt;span style=&quot;white-space: pre;&quot;&gt;&#x9;&lt;/span&gt;&quot;manufacturingDate&quot;: &quot;&quot;, //optional&lt;br&gt;&lt;/span&gt;&lt;/div&gt;&lt;div&gt;&lt;span style=&quot;color: rgb(108, 118, 125); font-size: 14px;&quot;&gt;&lt;span style=&quot;white-space: pre;&quot;&gt;&#x9;&lt;/span&gt;&quot;status&quot;: &quot;AVAILABLE/UNDER_MAINTANENCE/DISCARDED&quot;, //&lt;/span&gt;&lt;span style=&quot;color: rgb(108, 118, 125); font-size: 14px; background-color: initial;&quot;&gt;Optional&lt;/span&gt;&lt;span style=&quot;color: rgb(108, 118, 125); font-size: 14px;&quot;&gt;&lt;br&gt;&lt;/span&gt;&lt;/div&gt;&lt;div&gt;&lt;span style=&quot;color: rgb(108, 118, 125); font-size: 14px;&quot;&gt;&lt;span style=&quot;white-space: pre;&quot;&gt;&#x9;&lt;/span&gt;&quot;cost&quot;: 200, // optional&lt;br&gt;&lt;/span&gt;&lt;/div&gt;&lt;div&gt;&lt;span style=&quot;color: rgb(108, 118, 125); font-size: 14px;&quot;&gt;&lt;span style=&quot;white-space: pre;&quot;&gt;&#x9;&lt;/span&gt;&quot;unit&quot;: &quot;Day/Month/ Hr&quot;, //optional&lt;br&gt;&lt;/span&gt;&lt;/div&gt;&lt;div&gt;&lt;span style=&quot;color: rgb(108, 118, 125); font-size: 14px;&quot;&gt;&lt;span style=&quot;white-space: pre;&quot;&gt;&#x9;&lt;/span&gt;&quot;qty&quot;: 10 //optional default take 1 qty&lt;br&gt;&lt;/span&gt;&lt;/div&gt;&lt;div&gt;&lt;span style=&quot;color: rgb(108, 118, 125); font-size: 14px;&quot;&gt;&lt;br&gt;&lt;/span&gt;&lt;/div&gt;&lt;div&gt;&lt;span style=&quot;color: rgb(108, 118, 125); font-size: 14px;&quot;&gt;}&lt;/span&gt;&lt;/div&gt;&lt;/div&gt;&lt;div&gt;&lt;span style=&quot;color: rgb(108, 118, 125); font-size: 14px;&quot;&gt;&lt;br&gt;&lt;/span&gt;&lt;/div&gt;&lt;div&gt;&lt;span style=&quot;color: rgb(108, 118, 125); font-size: 14px;&quot;&gt;ResponseBody :&amp;nbsp;&lt;/span&gt;&lt;span style=&quot;color: rgb(108, 118, 125); font-size: 14px; background-color: initial;&quot;&gt;{&lt;/span&gt;&lt;/div&gt;&lt;div&gt;&lt;span style=&quot;color: rgb(108, 118, 125); font-size: 14px;&quot;&gt;&lt;span style=&quot;white-space: pre;&quot;&gt;&#x9;&lt;/span&gt;&quot;v_id&quot;:21,//mandaotry&lt;br&gt;&lt;/span&gt;&lt;/div&gt;&lt;div&gt;&lt;span style=&quot;color: rgb(108, 118, 125); font-size: 14px;&quot;&gt;&lt;span style=&quot;white-space: pre;&quot;&gt;&#x9;&lt;/span&gt;&quot;vehicleNbr&quot;: &quot;123ABC&quot;, //Optional&lt;/span&gt;&lt;/div&gt;&lt;div&gt;&lt;/div&gt;&lt;div&gt;&lt;/div&gt;&lt;div&gt;&lt;span style=&quot;color: rgb(108, 118, 125); font-size: 14px;&quot;&gt;&lt;span style=&quot;white-space: pre;&quot;&gt;&#x9;&lt;/span&gt;&quot;category&quot;: &quot;Scooter/Car/Cycle&quot;, //&lt;/span&gt;&lt;span style=&quot;color: rgb(108, 118, 125); font-size: 14px; background-color: initial;&quot;&gt;Optional&lt;/span&gt;&lt;span style=&quot;color: rgb(108, 118, 125); font-size: 14px;&quot;&gt;&lt;br&gt;&lt;/span&gt;&lt;/div&gt;&lt;div&gt;&lt;span style=&quot;color: rgb(108, 118, 125); font-size: 14px;&quot;&gt;&lt;span style=&quot;white-space: pre;&quot;&gt;&#x9;&lt;/span&gt;&quot;size&quot;: &quot;S/M/L&quot;, //optional&lt;br&gt;&lt;/span&gt;&lt;/div&gt;&lt;div&gt;&lt;span style=&quot;color: rgb(108, 118, 125); font-size: 14px;&quot;&gt;&lt;span style=&quot;white-space: pre;&quot;&gt;&#x9;&lt;/span&gt;&quot;subCategory&quot;: &quot;CNG/Motor&quot;, // optional&lt;br&gt;&lt;/span&gt;&lt;/div&gt;&lt;div&gt;&lt;span style=&quot;color: rgb(108, 118, 125); font-size: 14px;&quot;&gt;&lt;span style=&quot;white-space: pre;&quot;&gt;&#x9;&lt;/span&gt;&quot;manufacturingDate&quot;: &quot;&quot;, //optional&lt;br&gt;&lt;/span&gt;&lt;/div&gt;&lt;div&gt;&lt;span style=&quot;color: rgb(108, 118, 125); font-size: 14px;&quot;&gt;&lt;span style=&quot;white-space: pre;&quot;&gt;&#x9;&lt;/span&gt;&quot;status&quot;: &quot;AVAILABLE/UNDER_MAINTANENCE/DISCARDED&quot;, //&lt;/span&gt;&lt;span style=&quot;color: rgb(108, 118, 125); font-size: 14px; background-color: initial;&quot;&gt;Optional&lt;/span&gt;&lt;span style=&quot;color: rgb(108, 118, 125); font-size: 14px;&quot;&gt;&lt;br&gt;&lt;/span&gt;&lt;/div&gt;&lt;div&gt;&lt;span style=&quot;color: rgb(108, 118, 125); font-size: 14px;&quot;&gt;&lt;span style=&quot;white-space: pre;&quot;&gt;&#x9;&lt;/span&gt;&quot;cost&quot;: 200, // optional&lt;br&gt;&lt;/span&gt;&lt;/div&gt;&lt;div&gt;&lt;span style=&quot;color: rgb(108, 118, 125); font-size: 14px;&quot;&gt;&lt;span style=&quot;white-space: pre;&quot;&gt;&#x9;&lt;/span&gt;&quot;unit&quot;: &quot;Day/Month/ Hr&quot;, //optional&lt;br&gt;&lt;/span&gt;&lt;/div&gt;&lt;div&gt;&lt;span style=&quot;color: rgb(108, 118, 125); font-size: 14px;&quot;&gt;&lt;span style=&quot;white-space: pre;&quot;&gt;&#x9;&lt;/span&gt;&quot;qty&quot;: 10 //optional default take 1 qty&lt;br&gt;&lt;/span&gt;&lt;/div&gt;&lt;div&gt;&lt;span style=&quot;color: rgb(108, 118, 125); font-size: 14px;&quot;&gt;&lt;br&gt;&lt;/span&gt;&lt;/div&gt;&lt;div&gt;&lt;span style=&quot;color: rgb(108, 118, 125); font-size: 14px;&quot;&gt;}&lt;/span&gt;&lt;/div&gt;&lt;div&gt;&lt;span style=&quot;color: rgb(108, 118, 125); font-size: 14px;&quot;&gt;Status: 200&lt;/span&gt;&lt;span style=&quot;color: rgb(108, 118, 125); font-size: 14px;&quot;&gt;&lt;br&gt;&lt;/span&gt;&lt;/div&gt;&lt;div&gt;&lt;span style=&quot;color: rgb(108, 118, 125); font-size: 14px;&quot;&gt;&lt;br&gt;&lt;/span&gt;&lt;/div&gt;&lt;div&gt;&lt;span style=&quot;color: rgb(108, 118, 125); font-size: 14px;&quot;&gt;&lt;br&gt;&lt;/span&gt;&lt;/div&gt;&lt;div&gt;&lt;span style=&quot;color: rgb(108, 118, 125); font-size: 14px;&quot;&gt;delete vehicle&lt;br&gt;&lt;/span&gt;&lt;font color=&quot;#6c767d&quot;&gt;&lt;span style=&quot;font-size: 14px;&quot;&gt;DELETE:&amp;nbsp;&lt;/span&gt;&lt;/font&gt;&lt;span style=&quot;color: rgb(108, 118, 125); font-size: 14px; background-color: initial;&quot;&gt;rental/service/v1/vehicle&lt;/span&gt;&lt;/div&gt;&lt;/div&gt;&lt;/div&gt;&lt;/div&gt;&lt;div&gt;&lt;font color=&quot;#6c767d&quot;&gt;&lt;span style=&quot;font-size: 14px;&quot;&gt;[12,23,31]&lt;/span&gt;&lt;/font&gt;&lt;/div&gt;&lt;div&gt;&lt;span style=&quot;color: rgb(108, 118, 125); font-size: 14px;&quot;&gt;&lt;br&gt;&lt;/span&gt;&lt;/div&gt;&lt;div&gt;&lt;span style=&quot;color: rgb(108, 118, 125); font-size: 14px;&quot;&gt;Response Status: 200&lt;/span&gt;&lt;font color=&quot;#6c767d&quot;&gt;&lt;span style=&quot;font-size: 14px;&quot;&gt;&lt;br&gt;&lt;/span&gt;&lt;/font&gt;&lt;/div&gt;&lt;div&gt;&lt;font color=&quot;#6c767d&quot;&gt;&lt;span style=&quot;font-size: 14px;&quot;&gt;&lt;br&gt;&lt;/span&gt;&lt;/font&gt;&lt;/div&gt;&lt;div&gt;&lt;font color=&quot;#6c767d&quot;&gt;&lt;span style=&quot;font-size: 14px;&quot;&gt;&lt;br&gt;&lt;/span&gt;&lt;/font&gt;&lt;/div&gt;&lt;div&gt;&lt;font color=&quot;#6c767d&quot;&gt;&lt;span style=&quot;font-size: 14px;&quot;&gt;&lt;br&gt;&lt;/span&gt;&lt;/font&gt;&lt;/div&gt;&lt;div&gt;&lt;font color=&quot;#6c767d&quot;&gt;&lt;span style=&quot;font-size: 14px;&quot;&gt;&lt;br&gt;&lt;/span&gt;&lt;/font&gt;&lt;/div&gt;&lt;div&gt;&lt;font color=&quot;#6c767d&quot;&gt;&lt;span style=&quot;font-size: 14px;&quot;&gt;Booking API&lt;/span&gt;&lt;/font&gt;&lt;/div&gt;&lt;div&gt;&lt;font color=&quot;#6c767d&quot;&gt;&lt;span style=&quot;font-size: 14px;&quot;&gt;&lt;br&gt;&lt;/span&gt;&lt;/font&gt;&lt;/div&gt;&lt;div&gt;&lt;span style=&quot;color: rgb(108, 118, 125); font-size: 14px; background-color: initial;&quot;&gt;POST:&amp;nbsp;&lt;/span&gt;&lt;font color=&quot;#6c767d&quot;&gt;&lt;span style=&quot;font-size: 14px;&quot;&gt;/rental/service/v1/booking/cost&lt;/span&gt;&lt;/font&gt;&lt;/div&gt;&lt;div&gt;Header=&amp;gt; bookingId:UUID //for idempotent transaction also same would be used as booking id&lt;/div&gt;&lt;div&gt;&lt;br&gt;&lt;/div&gt;&lt;div&gt;{&lt;/div&gt;&lt;div&gt;&lt;span style=&quot;white-space: pre;&quot;&gt;&#x9;&lt;/span&gt;&quot;bookingDate&quot;: &quot;date&quot;,&lt;br&gt;&lt;/div&gt;&lt;div&gt;&lt;span style=&quot;white-space: pre;&quot;&gt;&#x9;&lt;/span&gt;vehicles: [&lt;/div&gt;&lt;div&gt;&lt;span style=&quot;white-space: pre;&quot;&gt;&#x9;&lt;/span&gt;&lt;span style=&quot;white-space: pre;&quot;&gt;&#x9;&lt;/span&gt;{&lt;/div&gt;&lt;div&gt;&lt;span style=&quot;white-space: pre;&quot;&gt;&#x9;&lt;/span&gt;&lt;span style=&quot;white-space: pre;&quot;&gt;&#x9;&lt;/span&gt;&lt;span style=&quot;white-space: pre;&quot;&gt;&#x9;&lt;/span&gt;&quot;v_id&quot;:10,&lt;br&gt;&lt;/div&gt;&lt;div&gt;&lt;span style=&quot;white-space: pre;&quot;&gt;&#x9;&lt;/span&gt;&lt;span style=&quot;white-space: pre;&quot;&gt;&#x9;&lt;/span&gt;&lt;span style=&quot;white-space: pre;&quot;&gt;&#x9;&lt;/span&gt;&quot;rental_duration&quot;: 2,&lt;br&gt;&lt;/div&gt;&lt;div&gt;&lt;span style=&quot;white-space: pre;&quot;&gt;&#x9;&lt;/span&gt;&lt;span style=&quot;white-space: pre;&quot;&gt;&#x9;&lt;/span&gt;&lt;span style=&quot;white-space: pre;&quot;&gt;&#x9;&lt;/span&gt;&quot;unit&quot;: &quot;DAY&quot;,&lt;br&gt;&lt;/div&gt;&lt;div&gt;&lt;span style=&quot;white-space: pre;&quot;&gt;&#x9;&lt;/span&gt;&lt;span style=&quot;white-space: pre;&quot;&gt;&#x9;&lt;/span&gt;&lt;span style=&quot;white-space: pre;&quot;&gt;&#x9;&lt;/span&gt;&quot;qty&quot;: 2&lt;/div&gt;&lt;div&gt;&lt;span style=&quot;white-space: pre;&quot;&gt;&#x9;&lt;/span&gt;&lt;span style=&quot;white-space: pre;&quot;&gt;&#x9;&lt;/span&gt;}&lt;br&gt;&lt;/div&gt;&lt;div&gt;&lt;span style=&quot;white-space: pre;&quot;&gt;&#x9;&lt;/span&gt;]&lt;br&gt;&lt;/div&gt;&lt;div&gt;}&lt;/div&gt;&lt;div&gt;&lt;br&gt;&lt;/div&gt;&lt;div&gt;&lt;br&gt;&lt;/div&gt;&lt;div&gt;&lt;div&gt;&lt;span style=&quot;color: rgb(108, 118, 125); font-size: 14px; background-color: initial;&quot;&gt;POST:&amp;nbsp;&lt;/span&gt;&lt;font color=&quot;#6c767d&quot;&gt;&lt;span style=&quot;font-size: 14px;&quot;&gt;/rental/service/v1/booking/confirm&lt;/span&gt;&lt;/font&gt;&lt;/div&gt;&lt;div&gt;Header=&amp;gt; bookingId:UUID //for idempotent transaction also same would be used as booking id&lt;/div&gt;&lt;div&gt;&lt;br&gt;&lt;/div&gt;&lt;div&gt;{&lt;/div&gt;&lt;div&gt;&lt;span style=&quot;white-space: pre;&quot;&gt;&#x9;&lt;/span&gt;&quot;bookingDate&quot;: &quot;date&quot;,&lt;br&gt;&lt;/div&gt;&lt;div&gt;&lt;span style=&quot;white-space: pre;&quot;&gt;&#x9;&lt;/span&gt;&quot;amountPaid&quot;: 200,&lt;br&gt;&lt;/div&gt;&lt;div&gt;&lt;span style=&quot;white-space: pre;&quot;&gt;&#x9;&lt;/span&gt;vehicles: [&lt;/div&gt;&lt;div&gt;&lt;span style=&quot;white-space: pre;&quot;&gt;&#x9;&lt;/span&gt;&lt;span style=&quot;white-space: pre;&quot;&gt;&#x9;&lt;/span&gt;{&lt;/div&gt;&lt;div&gt;&lt;span style=&quot;white-space: pre;&quot;&gt;&#x9;&lt;/span&gt;&lt;span style=&quot;white-space: pre;&quot;&gt;&#x9;&lt;/span&gt;&lt;span style=&quot;white-space: pre;&quot;&gt;&#x9;&lt;/span&gt;&quot;v_id&quot;:10,&lt;br&gt;&lt;/div&gt;&lt;div&gt;&lt;span style=&quot;white-space: pre;&quot;&gt;&#x9;&lt;/span&gt;&lt;span style=&quot;white-space: pre;&quot;&gt;&#x9;&lt;/span&gt;&lt;span style=&quot;white-space: pre;&quot;&gt;&#x9;&lt;/span&gt;&quot;rental_duration&quot;: 2,&lt;br&gt;&lt;/div&gt;&lt;div&gt;&lt;span style=&quot;white-space: pre;&quot;&gt;&#x9;&lt;/span&gt;&lt;span style=&quot;white-space: pre;&quot;&gt;&#x9;&lt;/span&gt;&lt;span style=&quot;white-space: pre;&quot;&gt;&#x9;&lt;/span&gt;&quot;unit&quot;: &quot;DAY&quot;,&lt;br&gt;&lt;/div&gt;&lt;div&gt;&lt;span style=&quot;white-space: pre;&quot;&gt;&#x9;&lt;/span&gt;&lt;span style=&quot;white-space: pre;&quot;&gt;&#x9;&lt;/span&gt;&lt;span style=&quot;white-space: pre;&quot;&gt;&#x9;&lt;/span&gt;&quot;qty&quot;: 2&lt;/div&gt;&lt;div&gt;&lt;span style=&quot;white-space: pre;&quot;&gt;&#x9;&lt;/span&gt;&lt;span style=&quot;white-space: pre;&quot;&gt;&#x9;&lt;/span&gt;}&lt;br&gt;&lt;/div&gt;&lt;div&gt;&lt;span style=&quot;white-space: pre;&quot;&gt;&#x9;&lt;/span&gt;]&lt;br&gt;&lt;/div&gt;&lt;div&gt;}&lt;/div&gt;&lt;/div&gt;&lt;div&gt;&lt;br&gt;&lt;/div&gt;&lt;div&gt;&lt;br&gt;&lt;/div&gt;&lt;div&gt;&lt;br&gt;&lt;/div&gt;&lt;div&gt;&lt;br&gt;&lt;/div&gt;&lt;div&gt;&lt;br&gt;&lt;/div&gt;&lt;div&gt;&lt;div&gt;&lt;span style=&quot;color: rgb(108, 118, 125); font-size: 14px; background-color: initial;&quot;&gt;POST:&amp;nbsp;&lt;/span&gt;&lt;font color=&quot;#6c767d&quot;&gt;&lt;span style=&quot;font-size: 14px;&quot;&gt;/rental/service/v1/booking/return&lt;/span&gt;&lt;/font&gt;&lt;/div&gt;&lt;div&gt;Header=&amp;gt; bookingId:UUID //for idempotent transaction also same would be used as booking id&lt;/div&gt;&lt;div&gt;&lt;br&gt;&lt;/div&gt;&lt;div&gt;{&lt;/div&gt;&lt;div&gt;&lt;span style=&quot;white-space: pre;&quot;&gt;&#x9;&lt;/span&gt;&quot;bookingId&quot;: &quot;UUID&quot;,&lt;br&gt;&lt;/div&gt;&lt;div&gt;&lt;span style=&quot;white-space: pre;&quot;&gt;&#x9;&lt;/span&gt;&quot;amountPaid&quot;: 100&lt;br&gt;&lt;/div&gt;&lt;div&gt;&lt;span style=&quot;white-space: pre;&quot;&gt;&#x9;&lt;/span&gt;vehicles: [&lt;/div&gt;&lt;div&gt;&lt;span style=&quot;white-space: pre;&quot;&gt;&#x9;&lt;/span&gt;&lt;span style=&quot;white-space: pre;&quot;&gt;&#x9;&lt;/span&gt;{&lt;/div&gt;&lt;div&gt;&lt;span style=&quot;white-space: pre;&quot;&gt;&#x9;&lt;/span&gt;&lt;span style=&quot;white-space: pre;&quot;&gt;&#x9;&lt;/span&gt;&lt;span style=&quot;white-space: pre;&quot;&gt;&#x9;&lt;/span&gt;&quot;v_id&quot;:10,&lt;/div&gt;&lt;div&gt;&lt;span style=&quot;white-space: pre;&quot;&gt;&#x9;&lt;/span&gt;&lt;span style=&quot;white-space: pre;&quot;&gt;&#x9;&lt;/span&gt;&lt;span style=&quot;white-space: pre;&quot;&gt;&#x9;&lt;/span&gt;&quot;qty&quot;: 1&lt;/div&gt;&lt;div&gt;&lt;span style=&quot;white-space: pre;&quot;&gt;&#x9;&lt;/span&gt;&lt;span style=&quot;white-space: pre;&quot;&gt;&#x9;&lt;/span&gt;}&lt;br&gt;&lt;/div&gt;&lt;div&gt;&lt;span style=&quot;white-space: pre;&quot;&gt;&#x9;&lt;/span&gt;]&lt;br&gt;&lt;/div&gt;&lt;div&gt;}&lt;/div&gt;&lt;/div&gt;" style="text;html=1;align=left;verticalAlign=top;whiteSpace=wrap;rounded=0;labelPosition=center;verticalLabelPosition=middle;" vertex="1" parent="1">
          <mxGeometry x="40" y="1130" width="850" height="2130" as="geometry" />
        </mxCell>
        <mxCell id="fS3_3A86jwli9yk5PjE--24" value="&lt;b&gt;Status:&lt;/b&gt;&lt;br&gt;BOOKING_INITIATED&lt;br&gt;BOOKED&lt;div&gt;CANCELLED&lt;/div&gt;&lt;div&gt;BOOKING_COMPLETED&lt;/div&gt;" style="text;html=1;align=left;verticalAlign=top;whiteSpace=wrap;rounded=0;" vertex="1" parent="1">
          <mxGeometry x="550" y="830" width="310" height="100" as="geometry" />
        </mxCell>
        <mxCell id="fS3_3A86jwli9yk5PjE--25" style="edgeStyle=orthogonalEdgeStyle;rounded=0;orthogonalLoop=1;jettySize=auto;html=1;" edge="1" parent="1" source="fS3_3A86jwli9yk5PjE--8" target="fS3_3A86jwli9yk5PjE--13">
          <mxGeometry relative="1" as="geometry" />
        </mxCell>
        <mxCell id="fS3_3A86jwli9yk5PjE--26" value="CostComputationUtil" style="swimlane;fontStyle=0;align=center;verticalAlign=top;childLayout=stackLayout;horizontal=1;startSize=26;horizontalStack=0;resizeParent=1;resizeLast=0;collapsible=1;marginBottom=0;rounded=0;shadow=0;strokeWidth=1;" vertex="1" parent="1">
          <mxGeometry x="685" y="3783" width="240" height="80" as="geometry">
            <mxRectangle x="550" y="140" width="160" height="26" as="alternateBounds" />
          </mxGeometry>
        </mxCell>
        <mxCell id="fS3_3A86jwli9yk5PjE--27" value="" style="line;html=1;strokeWidth=1;align=left;verticalAlign=middle;spacingTop=-1;spacingLeft=3;spacingRight=3;rotatable=0;labelPosition=right;points=[];portConstraint=eastwest;" vertex="1" parent="fS3_3A86jwli9yk5PjE--26">
          <mxGeometry y="26" width="240" height="8" as="geometry" />
        </mxCell>
        <mxCell id="fS3_3A86jwli9yk5PjE--28" value="computeCost" style="text;align=left;verticalAlign=top;spacingLeft=4;spacingRight=4;overflow=hidden;rotatable=0;points=[[0,0.5],[1,0.5]];portConstraint=eastwest;" vertex="1" parent="fS3_3A86jwli9yk5PjE--26">
          <mxGeometry y="34" width="240" height="46" as="geometry" />
        </mxCell>
        <mxCell id="fS3_3A86jwli9yk5PjE--29" value="VehicleManagementDAO" style="swimlane;fontStyle=0;align=center;verticalAlign=top;childLayout=stackLayout;horizontal=1;startSize=26;horizontalStack=0;resizeParent=1;resizeLast=0;collapsible=1;marginBottom=0;rounded=0;shadow=0;strokeWidth=1;" vertex="1" parent="1">
          <mxGeometry x="695" y="3370" width="240" height="133" as="geometry">
            <mxRectangle x="550" y="140" width="160" height="26" as="alternateBounds" />
          </mxGeometry>
        </mxCell>
        <mxCell id="fS3_3A86jwli9yk5PjE--30" value="" style="line;html=1;strokeWidth=1;align=left;verticalAlign=middle;spacingTop=-1;spacingLeft=3;spacingRight=3;rotatable=0;labelPosition=right;points=[];portConstraint=eastwest;" vertex="1" parent="fS3_3A86jwli9yk5PjE--29">
          <mxGeometry y="26" width="240" height="8" as="geometry" />
        </mxCell>
        <mxCell id="fS3_3A86jwli9yk5PjE--31" value="addVehicle&#xa;updateVehicle&#xa;removeVehicle&#xa;updateCostByCategory&#xa;getVehiclesCost&#xa;getVehiclesCostByCategory&#xa;" style="text;align=left;verticalAlign=top;spacingLeft=4;spacingRight=4;overflow=hidden;rotatable=0;points=[[0,0.5],[1,0.5]];portConstraint=eastwest;" vertex="1" parent="fS3_3A86jwli9yk5PjE--29">
          <mxGeometry y="34" width="240" height="96" as="geometry" />
        </mxCell>
        <mxCell id="fS3_3A86jwli9yk5PjE--32" value="BookingMgmtDAO" style="swimlane;fontStyle=0;align=center;verticalAlign=top;childLayout=stackLayout;horizontal=1;startSize=26;horizontalStack=0;resizeParent=1;resizeLast=0;collapsible=1;marginBottom=0;rounded=0;shadow=0;strokeWidth=1;" vertex="1" parent="1">
          <mxGeometry x="325" y="3793" width="160" height="138" as="geometry">
            <mxRectangle x="130" y="380" width="160" height="26" as="alternateBounds" />
          </mxGeometry>
        </mxCell>
        <mxCell id="fS3_3A86jwli9yk5PjE--33" value="" style="line;html=1;strokeWidth=1;align=left;verticalAlign=middle;spacingTop=-1;spacingLeft=3;spacingRight=3;rotatable=0;labelPosition=right;points=[];portConstraint=eastwest;" vertex="1" parent="fS3_3A86jwli9yk5PjE--32">
          <mxGeometry y="26" width="160" height="8" as="geometry" />
        </mxCell>
        <mxCell id="fS3_3A86jwli9yk5PjE--34" value="createBooking&#xa;returnItem&#xa;updateBalance&#xa;fetchBalanceAmount&#xa;retrieveBookingHistory" style="text;align=left;verticalAlign=top;spacingLeft=4;spacingRight=4;overflow=hidden;rotatable=0;points=[[0,0.5],[1,0.5]];portConstraint=eastwest;fontStyle=4" vertex="1" parent="fS3_3A86jwli9yk5PjE--32">
          <mxGeometry y="34" width="160" height="86" as="geometry" />
        </mxCell>
        <mxCell id="fS3_3A86jwli9yk5PjE--35" value="BookingRoute" style="swimlane;fontStyle=0;align=center;verticalAlign=top;childLayout=stackLayout;horizontal=1;startSize=26;horizontalStack=0;resizeParent=1;resizeLast=0;collapsible=1;marginBottom=0;rounded=0;shadow=0;strokeWidth=1;" vertex="1" parent="1">
          <mxGeometry x="308.75" y="3360" width="192.5" height="120" as="geometry">
            <mxRectangle x="130" y="380" width="160" height="26" as="alternateBounds" />
          </mxGeometry>
        </mxCell>
        <mxCell id="fS3_3A86jwli9yk5PjE--36" value="" style="line;html=1;strokeWidth=1;align=left;verticalAlign=middle;spacingTop=-1;spacingLeft=3;spacingRight=3;rotatable=0;labelPosition=right;points=[];portConstraint=eastwest;" vertex="1" parent="fS3_3A86jwli9yk5PjE--35">
          <mxGeometry y="26" width="192.5" height="8" as="geometry" />
        </mxCell>
        <mxCell id="fS3_3A86jwli9yk5PjE--37" value="All API will be routed from here" style="text;align=left;verticalAlign=top;spacingLeft=4;spacingRight=4;overflow=hidden;rotatable=0;points=[[0,0.5],[1,0.5]];portConstraint=eastwest;fontStyle=4" vertex="1" parent="fS3_3A86jwli9yk5PjE--35">
          <mxGeometry y="34" width="192.5" height="86" as="geometry" />
        </mxCell>
      </root>
    </mxGraphModel>
  </diagram>
</mxfile>
